#Comment line ignore any data following # character 
#Hierarchical Translation and Rotation (.htr) file 
[Header]	
#Header keywords are followed by a single value 
FileType HTR		#Single word string
DataType HTRS		#Translation followed by rotation and scale data
FileVersion 1		#integer
NumSegments 64		#integer
NumFrames 3		#integer
DataFrameRate 30		#integer, data frame rate in this file
EulerRotationOrder ZYX
CalibrationUnits mm
RotationUnits Degrees
GlobalAxisofGravity Y
BoneLengthAxis Y
ScaleFactor 1.00
[SegmentNames&Hierarchy]
#CHILD	PARENT
Pinger_Root GLOBAL
Pelvis Pinger_Root
L_Hip Pelvis
R_Hip Pelvis
Rear_Leg01 Pelvis
Spine1 Pelvis
L_Leg01 L_Hip
L_Leg02 L_Leg01
L_Leg03 L_Leg02
L_Foot L_Leg03
L_Toe1_01 L_Foot
L_Toe2_01 L_Foot
L_Toe3_01 L_Foot
planeAlignerLeft L_Foot
L_Toe1_02 L_Toe1_01
L_Toe1_03 L_Toe1_02
L_Toe2_02 L_Toe2_01
L_Toe2_03 L_Toe2_02
L_Toe3_02 L_Toe3_01
L_Toe3_03 L_Toe3_02
planeLockWeightLeft planeAlignerLeft
R_Leg01 R_Hip
R_Leg02 R_Leg01
R_Leg03 R_Leg02
R_Foot R_Leg03
planeAlignerRight R_Foot
R_Toe1_01 R_Foot
R_Toe2_01 R_Foot
R_Toe3_01 R_Foot
planeLockWeightRight planeAlignerRight
R_Toe1_02 R_Toe1_01
R_Toe1_03 R_Toe1_02
R_Toe2_02 R_Toe2_01
R_Toe2_03 R_Toe2_02
R_Toe3_02 R_Toe3_01
R_Toe3_03 R_Toe3_02
Rear_Leg02 Rear_Leg01
Rear_Leg03 Rear_Leg02
Rear_Leg04 Rear_Leg03
Rear_Foot Rear_Leg04
planeAlignerCenter Rear_Foot
Rear_Toe1_01 Rear_Foot
Rear_Toe2_01 Rear_Foot
Rear_Toe3_01 Rear_Foot
planeLockWeightCenter planeAlignerCenter
Rear_Toe1_02 Rear_Toe1_01
Rear_Toe1_03 Rear_Toe1_02
Rear_Toe2_02 Rear_Toe2_01
Rear_Toe2_03 Rear_Toe2_02
Rear_Toe3_02 Rear_Toe3_01
Rear_Toe3_03 Rear_Toe3_02
Back_Bone Spine1
Head Spine1
Motor_Bone Back_Bone
Ping_Mechanism Back_Bone
BN_LookIK Head
bottomMouth Head
L_Mouth01 Head
L_mouthFront Head
mouthGun Head
R_Mouth01 Head
R_mouthFront Head
TopMouth Head
weapon_bone Head
[BasePosition]
#SegmentName Tx, Ty, Tz, Rx, Ry, Rz, BoneLength
Pinger_Root 0.000000 0.000000 0.000000 -90.000000 0.000000 0.000000 10.000000 
Pelvis 0.000000 0.000000 0.000000 0.000000 0.000000 0.000000 10.000000 
L_Hip 0.000000 0.000000 0.000000 0.000000 0.000000 0.000000 10.000000 
R_Hip 0.000000 0.000000 0.000000 0.000000 0.000000 0.000000 10.000000 
Rear_Leg01 0.000000 0.000000 0.000000 0.000000 0.000000 0.000000 10.000000 
Spine1 0.000000 0.000000 0.000000 0.000000 0.000000 0.000000 10.000000 
L_Leg01 0.000000 0.000000 0.000000 0.000000 0.000000 0.000000 10.000000 
L_Leg02 0.000000 0.000000 0.000000 0.000000 0.000000 0.000000 10.000000 
L_Leg03 0.000000 0.000000 0.000000 0.000000 0.000000 0.000000 10.000000 
L_Foot 0.000000 0.000000 0.000000 0.000000 0.000000 0.000000 10.000000 
L_Toe1_01 0.000000 0.000000 0.000000 0.000000 0.000000 0.000000 10.000000 
L_Toe2_01 0.000000 0.000000 0.000000 0.000000 0.000000 0.000000 10.000000 
L_Toe3_01 0.000000 0.000000 0.000000 0.000000 0.000000 0.000000 10.000000 
planeAlignerLeft 0.000000 0.000000 0.000000 0.000000 0.000000 0.000000 10.000000 
L_Toe1_02 0.000000 0.000000 0.000000 0.000000 0.000000 0.000000 10.000000 
L_Toe1_03 0.000000 0.000000 0.000000 0.000000 0.000000 0.000000 10.000000 
L_Toe2_02 0.000000 0.000000 0.000000 0.000000 0.000000 0.000000 10.000000 
L_Toe2_03 0.000000 0.000000 0.000000 0.000000 0.000000 0.000000 10.000000 
L_Toe3_02 0.000000 0.000000 0.000000 0.000000 0.000000 0.000000 10.000000 
L_Toe3_03 0.000000 0.000000 0.000000 0.000000 0.000000 0.000000 10.000000 
planeLockWeightLeft 0.000000 0.000000 0.000000 0.000000 0.000000 0.000000 10.000000 
R_Leg01 0.000000 0.000000 0.000000 0.000000 0.000000 0.000000 10.000000 
R_Leg02 0.000000 0.000000 0.000000 0.000000 0.000000 0.000000 10.000000 
R_Leg03 0.000000 0.000000 0.000000 0.000000 0.000000 0.000000 10.000000 
R_Foot 0.000000 0.000000 0.000000 0.000000 0.000000 0.000000 10.000000 
planeAlignerRight 0.000000 0.000000 0.000000 0.000000 0.000000 0.000000 10.000000 
R_Toe1_01 0.000000 0.000000 0.000000 0.000000 0.000000 0.000000 10.000000 
R_Toe2_01 0.000000 0.000000 0.000000 0.000000 0.000000 0.000000 10.000000 
R_Toe3_01 0.000000 0.000000 0.000000 0.000000 0.000000 0.000000 10.000000 
planeLockWeightRight 0.000000 0.000000 0.000000 0.000000 0.000000 0.000000 10.000000 
R_Toe1_02 0.000000 0.000000 0.000000 0.000000 0.000000 0.000000 10.000000 
R_Toe1_03 0.000000 0.000000 0.000000 0.000000 0.000000 0.000000 10.000000 
R_Toe2_02 0.000000 0.000000 0.000000 0.000000 0.000000 0.000000 10.000000 
R_Toe2_03 0.000000 0.000000 0.000000 0.000000 0.000000 0.000000 10.000000 
R_Toe3_02 0.000000 0.000000 0.000000 0.000000 0.000000 0.000000 10.000000 
R_Toe3_03 0.000000 0.000000 0.000000 0.000000 0.000000 0.000000 10.000000 
Rear_Leg02 0.000000 0.000000 0.000000 0.000000 0.000000 0.000000 10.000000 
Rear_Leg03 0.000000 0.000000 0.000000 0.000000 0.000000 0.000000 10.000000 
Rear_Leg04 0.000000 0.000000 0.000000 0.000000 0.000000 0.000000 10.000000 
Rear_Foot 0.000000 0.000000 0.000000 0.000000 0.000000 0.000000 10.000000 
planeAlignerCenter 0.000000 0.000000 0.000000 0.000000 0.000000 0.000000 10.000000 
Rear_Toe1_01 0.000000 0.000000 0.000000 0.000000 0.000000 0.000000 10.000000 
Rear_Toe2_01 0.000000 0.000000 0.000000 0.000000 0.000000 0.000000 10.000000 
Rear_Toe3_01 0.000000 0.000000 0.000000 0.000000 0.000000 0.000000 10.000000 
planeLockWeightCenter 0.000000 0.000000 0.000000 0.000000 0.000000 0.000000 10.000000 
Rear_Toe1_02 0.000000 0.000000 0.000000 0.000000 0.000000 0.000000 10.000000 
Rear_Toe1_03 0.000000 0.000000 0.000000 0.000000 0.000000 0.000000 10.000000 
Rear_Toe2_02 0.000000 0.000000 0.000000 0.000000 0.000000 0.000000 10.000000 
Rear_Toe2_03 0.000000 0.000000 0.000000 0.000000 0.000000 0.000000 10.000000 
Rear_Toe3_02 0.000000 0.000000 0.000000 0.000000 0.000000 0.000000 10.000000 
Rear_Toe3_03 0.000000 0.000000 0.000000 0.000000 0.000000 0.000000 10.000000 
Back_Bone 0.000000 0.000000 0.000000 0.000000 0.000000 0.000000 10.000000 
Head 0.000000 0.000000 0.000000 0.000000 0.000000 0.000000 10.000000 
Motor_Bone 0.000000 0.000000 0.000000 0.000000 0.000000 0.000000 10.000000 
Ping_Mechanism 0.000000 0.000000 0.000000 0.000000 0.000000 0.000000 10.000000 
BN_LookIK 0.000000 0.000000 0.000000 0.000000 0.000000 0.000000 10.000000 
bottomMouth 0.000000 0.000000 0.000000 0.000000 0.000000 0.000000 10.000000 
L_Mouth01 0.000000 0.000000 0.000000 0.000000 0.000000 0.000000 10.000000 
L_mouthFront 0.000000 0.000000 0.000000 0.000000 0.000000 0.000000 10.000000 
mouthGun 0.000000 0.000000 0.000000 0.000000 0.000000 0.000000 10.000000 
R_Mouth01 0.000000 0.000000 0.000000 0.000000 0.000000 0.000000 10.000000 
R_mouthFront 0.000000 0.000000 0.000000 0.000000 0.000000 0.000000 10.000000 
TopMouth 0.000000 0.000000 0.000000 0.000000 0.000000 0.000000 10.000000 
weapon_bone 0.000000 0.000000 0.000000 0.000000 0.000000 0.000000 10.000000 
#Beginning of Data. Separated by tabs
#Fr	Tx	Ty	Tz	Rx	Ry	Rz	SF
[Pinger_Root]
28 0.000000 3499.999023 0.000000 -0.000075 -0.000000 -0.000020 3499.999023
29 0.000000 3629.628662 0.000000 -0.000075 -0.000000 -0.000020 3629.628662
30 0.000000 3759.258789 0.000000 -0.000075 -0.000000 -0.000020 3759.258789
[Pelvis]
28 41.945702 1004.342529 5088.478516 47.390312 -74.260033 -26.354719 5186.817871
29 104.100166 985.331177 5124.643066 49.605732 -74.972473 -27.587585 5219.547852
30 165.690536 976.287903 5160.559570 51.122639 -75.889397 -28.472410 5254.708984
[L_Hip]
28 5.766392 125.831482 872.656799 -178.250168 -81.786369 87.376007 881.701050
29 5.766392 125.831482 872.656799 -178.250168 -81.786369 87.376007 881.701050
30 5.766392 125.831482 872.656799 -178.250168 -81.786369 87.376007 881.701050
[R_Hip]
28 5.765438 125.836372 -872.654907 -1.748770 81.786041 87.376961 881.699829
29 5.765438 125.836372 -872.654907 -1.748770 81.786041 87.376961 881.699829
30 5.765438 125.836372 -872.654907 -1.748770 81.786041 87.376961 881.699829
[Rear_Leg01]
28 -192.298416 -925.602966 -0.001907 -160.377029 -0.421288 -154.238602 945.367432
29 -192.298416 -925.602966 -0.001907 -160.137100 -2.157802 -156.057632 945.367432
30 -192.298416 -925.602966 -0.001907 -160.051193 -4.222794 -156.674713 945.367432
[Spine1]
28 290.604584 5.007505 0.000477 -25.380478 1.304353 38.644932 290.647736
29 290.604584 5.007505 0.000477 -26.046286 2.674214 38.591000 290.647736
30 290.604584 5.007505 0.000477 -26.353388 3.855544 38.310802 290.647736
[L_Leg01]
28 761.932007 -0.002384 -0.069261 94.501259 19.449448 -84.206413 761.932068
29 761.932007 -0.002384 -0.069261 101.489204 12.258932 -85.154747 761.932068
30 761.932007 -0.002384 -0.069261 108.126785 4.651462 -87.649773 761.932068
[L_Leg02]
28 1441.140503 -0.000954 -0.000715 -1.376547 0.756402 -74.622894 1441.140503
29 1441.140503 -0.000954 -0.000715 -1.423745 0.693452 -86.477921 1441.140503
30 1441.140503 -0.000954 -0.000715 -1.421819 0.671223 -97.567070 1441.140503
[L_Leg03]
28 1686.963989 -0.000715 -0.000954 0.090452 -0.013545 84.992661 1686.963989
29 1686.963989 -0.000715 -0.000954 0.072185 -0.014524 90.852364 1686.963989
30 1686.963989 -0.000715 -0.000954 0.061413 -0.012563 93.854935 1686.963989
[L_Foot]
28 3041.570068 -30.715107 11.297464 -22.788589 11.296469 75.579086 3041.746094
29 3041.570068 -30.715107 11.297464 -26.884781 13.650636 64.592941 3041.746094
30 3041.570068 -30.715107 11.297464 -32.368290 15.015323 55.605755 3041.746094
[L_Toe1_01]
28 -188.216690 -224.732346 -21.137953 88.532990 -0.854599 -134.715683 293.899567
29 -188.216690 -224.732346 -21.137953 88.255409 0.151466 -124.236740 293.899567
30 -188.216690 -224.732346 -21.137953 88.115746 0.670999 -116.780991 293.899567
[L_Toe2_01]
28 200.746536 -219.926590 148.838394 -74.757263 -10.306990 -59.390614 332.896027
29 200.746536 -219.926590 148.838394 -74.847130 -10.228601 -59.088512 332.896027
30 200.746536 -219.926590 148.838394 -74.936523 -10.149740 -58.786598 332.896027
[L_Toe3_01]
28 188.832520 -219.859131 -191.078659 -109.632217 12.604249 -61.218277 347.140900
29 188.832520 -219.859131 -191.078659 -109.569153 12.553228 -61.045261 347.140900
30 188.832520 -219.859131 -191.078659 -109.446693 12.444447 -60.691326 347.140900
[planeAlignerLeft]
28 -85.629074 -811.659119 1.955479 0.000000 -90.000000 -90.001900 816.165833
29 -93.135330 -812.036072 3.871907 0.000000 -90.000000 -90.001900 817.368835
30 -95.818771 -814.657837 5.780857 0.000000 -90.000000 -90.001900 820.293945
[L_Toe1_02]
28 413.761139 0.000477 0.000000 0.001398 -24.193941 0.001398 413.761139
29 413.761139 0.000477 0.000000 0.001661 0.065814 0.001661 413.761139
30 413.761139 0.000477 0.000000 0.001660 0.043696 0.001660 413.761139
[L_Toe1_03]
28 464.317322 0.000358 -0.000089 0.002617 36.704929 0.002617 464.317322
29 464.317322 0.000358 -0.000089 0.001673 -0.448187 -0.003292 464.317322
30 464.317322 0.000358 -0.000089 0.001672 -0.428616 -0.003292 464.317322
[L_Toe2_02]
28 342.235809 -0.000477 0.000238 0.001185 -74.166359 0.001185 342.235809
29 342.235809 -0.000477 0.000238 0.001185 -74.022301 0.001185 342.235809
30 342.235809 -0.000477 0.000238 0.001186 -73.682083 0.001186 342.235809
[L_Toe2_03]
28 420.210846 -0.000715 0.000000 0.000000 89.494484 0.003502 420.210846
29 420.210846 -0.000715 0.000000 0.000000 89.674950 0.003494 420.210846
30 420.210846 -0.000715 0.000000 -0.058988 88.848862 -0.055491 420.210846
[L_Toe3_02]
28 329.270111 0.000954 0.000000 0.001180 -77.949615 0.001180 329.270111
29 329.270111 0.000954 0.000000 0.001180 -77.794640 0.001180 329.270111
30 329.270111 0.000954 0.000000 0.001180 -77.639648 0.001180 329.270111
[L_Toe3_03]
28 439.137451 -0.001907 0.000954 -179.981094 86.810219 -179.977600 439.137451
29 439.137451 -0.001907 0.000954 -179.974945 87.543221 -179.971451 439.137451
30 439.137451 -0.001907 0.000954 -179.963547 88.275688 -179.960052 439.137451
[planeLockWeightLeft]
28 500.002258 0.098114 0.076160 -0.011826 -0.004376 0.005620 500.002258
29 0.002861 0.098114 0.075989 -0.011826 -0.004376 0.005620 0.124132
30 -0.000023 0.098068 0.076004 -0.011826 -0.004376 0.005620 0.124073
[R_Leg01]
28 761.455627 -0.001907 -0.000358 119.013565 -14.957235 50.322544 761.455688
29 761.455627 -0.001907 -0.000358 122.063980 -10.029117 53.544136 761.455688
30 761.455627 -0.001907 -0.000358 124.325485 -6.385650 56.678509 761.455688
[R_Leg02]
28 1441.140625 0.000000 -0.000238 0.198496 -0.018563 -100.892670 1441.140625
29 1441.140625 0.000000 -0.000238 0.202806 0.004232 -93.717125 1441.140625
30 1441.140625 0.000000 -0.000238 0.202749 0.013001 -90.766602 1441.140625
[R_Leg03]
28 1686.963989 0.000954 0.001431 -0.031721 0.010349 101.923729 1686.963989
29 1686.963989 0.000954 0.001431 -0.038814 0.010584 100.470840 1686.963989
30 1686.963989 0.000954 0.001431 -0.035273 0.010468 101.130402 1686.963989
[R_Foot]
28 3041.560059 -30.531288 -11.204481 13.723306 -19.168535 43.944073 3041.734131
29 3041.560059 -30.531288 -11.204481 11.906710 -17.190512 44.248272 3041.734131
30 3041.560059 -30.531288 -11.204481 10.749270 -15.933725 45.381531 3041.734131
[planeAlignerRight]
28 -3.520466 -640.971252 8.617597 0.000000 -89.960434 -90.005180 641.038879
29 -64.655411 -571.873108 29.582170 0.000000 -89.960434 -90.005180 576.276245
30 -57.013592 -572.043579 29.143831 0.000000 -89.960434 -90.005180 575.616028
[R_Toe1_01]
28 -188.383347 -224.864899 21.052242 90.677879 1.554487 -163.222214 294.101532
29 -188.383347 -224.864899 21.052242 90.737015 0.416365 -165.912369 294.101532
30 -188.383347 -224.864899 21.052242 90.732735 0.447163 -166.264496 294.101532
[R_Toe2_01]
28 200.637817 -220.002121 -148.787384 -102.348572 11.745923 -46.305344 332.857574
29 200.637817 -220.002121 -148.787384 -100.845375 12.946082 -39.529072 332.857574
30 200.637817 -220.002121 -148.787384 -100.863075 12.698959 -39.762329 332.857574
[R_Toe3_01]
28 188.606735 -220.092957 191.126343 -73.504807 -15.613847 -48.518017 347.192566
29 188.606735 -220.092957 191.126343 -74.566315 -20.017162 -42.866795 347.192566
30 188.606735 -220.092957 191.126343 -74.573303 -19.759258 -42.927376 347.192566
[planeLockWeightRight]
28 999.999695 0.000000 0.076055 -0.011823 -0.004379 -0.000027 999.999695
29 999.999634 0.000000 0.076064 -0.011823 -0.004379 -0.000027 999.999634
30 999.999634 0.000000 0.076073 -0.011823 -0.004379 -0.000027 999.999634
[R_Toe1_02]
28 413.762085 0.000477 -0.000119 0.001411 -22.583714 0.001411 413.762085
29 413.762085 0.000477 -0.000119 0.001403 -23.602476 0.001403 413.762085
30 413.762085 0.000477 -0.000119 0.001406 -23.163263 0.001406 413.762085
[R_Toe1_03]
28 464.317810 0.000000 0.001088 0.002603 80.123466 0.004359 464.317810
29 464.317810 0.000000 0.001088 0.009357 75.589226 0.009357 464.317810
30 464.317810 0.000000 0.001088 0.010237 76.833656 0.010237 464.317810
[R_Toe2_02]
28 342.234741 -0.000954 0.000238 -0.002338 -76.949318 -0.002338 342.234741
29 342.234741 -0.000954 0.000238 -0.002332 -79.795288 -0.002332 342.234741
30 342.234741 -0.000954 0.000238 -0.002333 -79.525085 -0.002333 342.234741
[R_Toe2_03]
28 420.210846 0.000715 -0.000268 -179.991714 79.903030 -179.995224 420.210846
29 420.210846 0.000715 -0.000268 -179.995590 64.584793 -179.999191 420.210846
30 420.210846 0.000715 -0.000268 -179.995483 65.617386 -179.999069 420.210846
[R_Toe3_02]
28 329.270355 -0.000477 -0.000954 0.001178 -80.486732 0.001178 329.270355
29 329.270355 -0.000477 -0.000954 0.001176 -82.985130 0.001176 329.270355
30 329.270355 -0.000477 -0.000954 0.001176 -82.698563 0.001176 329.270355
[R_Toe3_03]
28 439.137939 0.000238 0.001431 -179.996033 78.490906 -179.992508 439.137939
29 439.137939 0.000238 0.001431 -179.998978 66.307259 -179.995422 439.137939
30 439.137939 0.000238 0.001431 -179.998871 67.213348 -179.995316 439.137939
[Rear_Leg02]
28 1162.777710 -0.029802 0.005960 -8.308575 8.670485 -137.875397 1162.777710
29 1162.777710 -0.029802 0.005960 -7.400624 9.260223 -135.750153 1162.777710
30 1162.777710 -0.029802 0.005960 -6.348643 9.726151 -131.358215 1162.777710
[Rear_Leg03]
28 607.192505 -0.013351 -0.073195 0.010174 -0.005713 74.989609 607.192505
29 607.192505 -0.013351 -0.073195 0.010251 -0.005578 73.456596 607.192505
30 607.192505 -0.013351 -0.073195 0.010325 -0.005440 71.923317 607.192505
[Rear_Leg04]
28 995.874512 -0.020504 -0.011921 -0.043870 -0.018390 83.180367 995.874573
29 995.874512 -0.020504 -0.011921 -0.045138 -0.018191 79.516327 995.874573
30 995.874512 -0.020504 -0.011921 -0.044117 -0.018230 75.459526 995.874573
[Rear_Foot]
28 3096.176270 -0.067472 -0.041425 97.144745 78.732574 -86.560875 3096.176270
29 3096.176270 -0.067472 -0.041425 101.669518 78.880791 -80.014587 3096.176270
30 3096.176270 -0.067472 -0.041425 106.845131 79.100502 -73.288712 3096.176270
[planeAlignerCenter]
28 1.036024 47.897453 -809.439880 0.000009 0.000003 -179.999985 810.856506
29 1.034317 52.896290 -795.709229 0.000009 0.000003 -179.999985 797.466187
30 1.032610 57.895123 -781.978638 0.000009 0.000003 -179.999985 784.119568
[Rear_Toe1_01]
28 0.653352 83.966492 -371.173737 0.065969 28.148342 90.032974 380.553192
29 0.653352 83.966492 -371.173737 0.066760 27.460201 90.032509 380.553192
30 0.653352 83.966492 -371.173737 0.067554 26.772089 90.032028 380.553192
[Rear_Toe2_01]
28 178.200760 -294.826019 -362.060547 0.675334 53.340092 -70.596336 499.765686
29 178.200760 -294.826019 -362.060547 0.755387 52.684212 -70.442078 499.765686
30 178.200760 -294.826019 -362.060547 0.831405 52.028240 -70.291580 499.765686
[Rear_Toe3_01]
28 -153.359680 -308.780914 -362.060852 -0.918124 53.322975 -111.820328 499.952881
29 -153.359680 -308.780914 -362.060852 -1.008019 52.666393 -111.991814 499.952881
30 -153.359680 -308.780914 -362.060852 -1.093394 52.009705 -112.159103 499.952881
[planeLockWeightCenter]
28 1000.000488 0.000375 0.076232 -0.011814 -0.004373 -0.000015 1000.000488
29 1000.000488 0.000371 0.076235 -0.011814 -0.004373 -0.000015 1000.000488
30 1000.000488 0.000367 0.076238 -0.011814 -0.004373 -0.000015 1000.000488
[Rear_Toe1_02]
28 379.707825 0.194073 0.000477 -0.000767 -33.624729 0.000838 379.707855
29 379.707825 0.194073 0.000477 -0.000767 -33.624729 0.000838 379.707855
30 379.707825 0.194073 0.000477 -0.000767 -33.624729 0.000838 379.707855
[Rear_Toe1_03]
28 500.129700 0.165701 0.000119 -0.004933 69.007202 -0.001377 500.129761
29 500.129700 0.165701 0.000119 -0.004926 68.962189 -0.001370 500.129761
30 500.129700 0.165701 0.000119 -0.002679 69.375160 0.000164 500.129761
[Rear_Toe2_02]
28 340.494507 0.000238 -0.000954 0.001179 -79.201683 0.001179 340.494507
29 340.494507 0.000238 -0.000954 0.001179 -80.118874 0.001179 340.494507
30 340.494507 0.000238 -0.000954 0.001178 -81.036125 0.001178 340.494507
[Rear_Toe2_03]
28 433.103577 0.000000 0.000238 0.033180 85.942810 0.033180 433.103546
29 433.103577 0.000000 0.000238 0.064870 87.924149 0.064870 433.103546
30 433.103577 0.000000 0.000238 0.000000 89.903091 0.000002 433.103546
[Rear_Toe3_02]
28 340.494141 -0.000358 -0.000477 0.001179 -79.115639 0.001179 340.494171
29 340.494141 -0.000358 -0.000477 0.001179 -80.031509 0.001179 340.494171
30 340.494141 -0.000358 -0.000477 0.001178 -80.947289 0.001178 340.494171
[Rear_Toe3_03]
28 433.103577 0.001431 -0.000238 -0.017274 85.753098 -0.013773 433.103546
29 433.103577 0.001431 -0.000238 -0.030731 87.724541 -0.027229 433.103546
30 433.103577 0.001431 -0.000238 0.000000 89.695450 0.003498 433.103546
[Back_Bone]
28 1312.175781 -701.934692 0.000954 2.671739 -1.890441 -84.238838 1488.125488
29 1312.175781 -701.934692 0.000954 2.767510 -1.075504 -84.529999 1488.125488
30 1312.175781 -701.934692 0.000954 2.859121 -0.260090 -84.819740 1488.125488
[Head]
28 1406.159424 809.709290 0.001431 2.246618 -2.403349 2.822667 1622.625488
29 1406.159424 809.709290 0.001431 2.566967 -2.355314 2.359884 1622.625488
30 1406.159424 809.709290 0.001431 2.886914 -2.304696 1.897383 1622.625488
[Motor_Bone]
28 1158.364380 -417.834747 0.000477 -1.960023 -0.663910 -106.649643 1231.419434
29 1158.364380 -417.834747 0.000477 -1.845118 -0.485018 -106.470413 1231.419434
30 1158.364380 -417.834747 0.000477 -1.729658 -0.306490 -106.290817 1231.419434
[Ping_Mechanism]
28 1196.006348 -402.498779 69.205551 0.000103 -0.000053 82.120995 1263.813965
29 1194.761841 -403.397217 64.679543 0.000103 -0.000053 82.120995 1262.683105
30 1193.517456 -404.295654 60.153530 0.000103 -0.000053 82.120995 1261.569458
[BN_LookIK]
28 193.241119 1380.371704 -0.002861 0.000000 89.965736 -31.038179 1393.832153
29 193.241119 1380.371704 -0.002861 0.000000 89.965736 -31.038179 1393.832153
30 193.241119 1380.371704 -0.002861 0.000000 89.965736 -31.038179 1393.832153
[bottomMouth]
28 -435.092926 615.759399 -0.000954 -0.000022 0.000016 73.527184 753.966492
29 -435.092926 615.759399 -0.000954 -0.000022 0.000016 73.527184 753.966492
30 -435.092926 615.759399 -0.000954 -0.000022 0.000016 73.527184 753.966492
[L_Mouth01]
28 554.440979 7.658243 838.222046 150.204178 23.759130 109.605339 1005.027161
29 554.440979 7.658243 838.222046 150.204178 23.759130 109.605339 1005.027161
30 554.440979 7.658243 838.222046 150.204178 23.759130 109.605339 1005.027161
[L_mouthFront]
28 551.629089 934.514771 339.150421 0.000081 2.804060 79.119301 1136.941284
29 551.629089 934.514771 339.150421 0.000081 2.804060 79.119301 1136.941284
30 551.629089 934.514771 339.150421 0.000081 2.804060 79.119301 1136.941284
[mouthGun]
28 55.332661 1627.420898 0.000000 0.000023 0.000009 -11.038128 1628.361328
29 55.332661 1627.420898 0.000000 0.000023 0.000009 -11.038128 1628.361328
30 55.332661 1627.420898 0.000000 0.000023 0.000009 -11.038128 1628.361328
[R_Mouth01]
28 554.442383 7.659197 -838.223938 29.795891 -23.759109 109.605331 1005.029541
29 554.442383 7.659197 -838.223938 29.795891 -23.759109 109.605331 1005.029541
30 554.442383 7.659197 -838.223938 29.795891 -23.759109 109.605331 1005.029541
[R_mouthFront]
28 551.629089 934.514282 -339.151367 0.000029 -2.803930 79.119133 1136.941162
29 551.629089 934.514282 -339.151367 0.000029 -2.803930 79.119133 1136.941162
30 551.629089 934.514282 -339.151367 0.000029 -2.803930 79.119133 1136.941162
[TopMouth]
28 461.269867 -56.106091 -0.008583 -0.000059 -0.000268 92.025169 464.669525
29 461.269867 -56.106091 -0.008583 -0.000059 -0.000268 92.025169 464.669525
30 461.269867 -56.106091 -0.008583 -0.000059 -0.000268 92.025169 464.669525
[weapon_bone]
28 -987.239868 1448.372803 0.001431 0.000000 89.965736 -31.038221 1752.833740
29 -987.239868 1448.372803 0.001431 0.000000 89.965736 -31.038221 1752.833740
30 -987.239868 1448.372803 0.001431 0.000000 89.965736 -31.038221 1752.833740
